<?xml version="1.0" encoding="utf-8"?>
<!-- Generator: Adobe Illustrator 26.4.1, SVG Export Plug-In . SVG Version: 6.00 Build 0)  -->
<svg version="1.1" xmlns="http://www.w3.org/2000/svg" xmlns:xlink="http://www.w3.org/1999/xlink" x="0px" y="0px"
	 viewBox="0 0 612 612.39" style="enable-background:new 0 0 612 612.39;" xml:space="preserve">
<style type="text/css">
	.st0{fill:#E09181;}
	.st1{fill:#DABA7A;}
	.st2{fill:#F3716D;}
	.st3{fill:#FBC9BC;}
</style>
<g id="Layer_1">
</g>
<g id="Layer_2">
	<g>
		<g>
			<g>
				<path class="st0" d="M130.21,466.19c0-15.82,4.82-24.71,14.56-26.66c-0.1-1.63-0.2-3.69-0.2-6.18c0-8.67,1.87-15.39,5.51-20.05
					s8.85-7.04,15.84-7.04c7.08,0,12.59,2.38,16.43,7.04c3.84,4.66,5.71,11.38,5.71,20.05c0,3.03-0.2,5.85-0.69,8.35
					c1.08,5.09,4.62,7.8,10.63,8.02h1.38v10.95h-1.48c-6.89-0.11-12-2.82-15.25-8.02c-4.23,5.31-10.13,8.02-17.81,8.02
					c-7.67,0-13.18-3.25-16.43-9.86c-5.12,1.63-7.67,6.72-7.67,15.17v14.63h-10.53V466.19z M177.14,433.89
					c0-11.27-3.74-17.02-11.22-17.13c-7.38,0-11.12,5.64-11.22,17.02c0,10.51,3.74,15.93,11.22,16.04
					C173.4,449.83,177.14,444.52,177.14,433.89z"/>
				<path class="st0" d="M198.39,449.72h36.79c0.2-3.36,0.3-6.83,0.3-10.19c0-5.96-1.38-11.06-4.03-15.28
					c-3.05-4.88-7.08-7.37-12.1-7.37c-5.21,0-9.64,2.82-13.09,8.56l-7.58-7.48c0.69-1.08,1.48-2.17,2.36-3.14
					c5.31-6.07,11.51-9.11,18.5-9.11c7.97,0,14.66,3.79,20.07,11.27c4.03,5.85,6,13.22,6,22.22c-0.1,7.91-0.39,15.07-0.69,21.46
					h-46.53V449.72z"/>
				<path class="st0" d="M264.31,458.17v-51.7h10.82v43.25h9.25v10.95h-9.35c-0.79,13.11-7.38,19.62-19.77,19.73h-4.72v-10.95h3.64
					C260.97,469.45,264.31,465.65,264.31,458.17z"/>
				<path class="st0" d="M282.91,449.72h1.08c6.1-0.11,9.15-4.12,9.15-12.03v-51.38h10.82v50.83c0,15.17-6.4,22.98-19.18,23.52
					h-1.87V449.72z"/>
				<path class="st0" d="M313.8,460.67v-74.35h11.12v74.35H313.8z"/>
				<path class="st0" d="M360.73,474.65c-4.23-4.01-6.3-9.86-6.3-17.67v-31.65h10.82v31.65c0,4.23,1.18,7.37,3.54,9.43
					c2.36,2.06,5.12,3.03,8.17,3.03c3.05,0,5.8-0.98,8.17-3.14c2.36-2.06,3.54-5.2,3.54-9.43v-70.56h10.82v63.41h10.92v10.95H399.3
					c-0.59,5.85-2.66,10.41-6.1,13.76c-4.23,4.01-9.74,5.96-16.33,5.96v0.22C370.28,480.61,364.96,478.66,360.73,474.65z"/>
				<path class="st0" d="M409.93,449.72h8.46c-2.36-4.44-3.54-9.97-3.54-16.69c0-8.45,1.97-15.07,5.9-19.73
					c3.84-4.66,9.25-7.04,16.23-7.04c7.08,0,12.59,2.38,16.43,7.04c3.84,4.66,5.71,11.38,5.71,20.05c0,9.43-2.26,16.37-6.79,20.92
					c-3.84,4.23-9.44,6.4-16.72,6.4h-25.68V449.72z M448.2,433.89c0-11.27-3.74-17.02-11.22-17.13c-7.38,0-11.12,5.64-11.22,17.02
					c0,10.73,3.74,16.04,11.22,16.04C444.46,449.83,448.2,444.52,448.2,433.89z"/>
				<path class="st0" d="M471.42,377.32c-2.07-1.08-3.05-3.03-3.05-5.85c0-2.82,1.08-4.88,3.15-6.29c0.98-0.65,2.07-0.98,3.25-0.98
					c1.28,0,2.75,0.43,4.33,1.19l-0.1,4.44c-0.89-0.33-1.67-0.43-2.36-0.43c-2.16,0.11-3.25,1.08-3.25,3.14
					c0,2.28,1.57,3.36,4.62,3.36c0.69,0,1.77-0.11,3.25-0.33l-0.2,4.44c-4.62,0.76-8.66,1.84-12.1,3.25l-0.69-4.66
					C468.96,378.18,470.04,377.75,471.42,377.32z M468.96,386.31h11.12v74.35h-11.12V386.31z"/>
			</g>
		</g>
		<path class="st1" d="M388.11,370.19c0.72-1.61,2.62-2.29,4.36-1.41l4.09,2.12l-3.52,8.41c-0.72,1.61-2.55,2.3-4.29,1.42
			l-2.39-1.21l1-2.4l2.15,1.12c0.58,0.32,0.98,0.3,1.15-0.14l0.22-0.61l-1.67-0.86c-0.85-0.45-1.45-1.15-1.74-2.06
			c-0.39-0.9-0.42-1.8-0.1-2.61L388.11,370.19z M389.82,373.24c-0.17,0.44-0.06,0.76,0.38,0.98l1.67,0.86l1.3-3.07l-1.67-0.86
			c-0.45-0.21-0.75-0.13-0.91,0.31L389.82,373.24z"/>
		<g>
			<g>
				<g>
					<path class="st1" d="M263.26,398.87c-0.76-0.64-1.28-1.67-1.57-3.15l-0.64-3.6l2.86-0.64l0.58,3.47
						c0.17,0.71,0.41,1.22,0.7,1.48c0.29,0.26,0.58,0.39,0.93,0.39c1.05,0,1.63-0.9,1.75-2.63c0-0.84-0.12-1.99-0.41-3.34l2.92-0.45
						l0.58,3.47c0.23,1.09,0.76,1.61,1.57,1.61c1.05,0,1.57-0.64,1.63-1.86c0-1.09-0.29-2.51-0.82-4.24l2.92-0.71l0.12,0.51
						c0.06,0.39,0.17,0.84,0.23,1.35c0.06,0.51,0.17,1.03,0.23,1.54c0.06,0.51,0.12,0.96,0.12,1.28c0,3.4-1.57,5.14-4.66,5.2
						c-0.52,0-0.99-0.19-1.46-0.51c-0.47-0.32-0.82-0.64-1.05-1.03c-0.29,0.84-0.76,1.48-1.46,2.12c-0.64,0.58-1.52,0.9-2.51,0.9
						l0.06-0.19C264.89,399.84,264.02,399.52,263.26,398.87z"/>
				</g>
			</g>
			<path class="st1" d="M259.58,390.07l-0.72-3.05l17.27-4.07l0.72,3.05L259.58,390.07z"/>
		</g>
		<path class="st1" d="M214.61,471.73l-0.72-3.05l17.27-4.07l0.72,3.05L214.61,471.73z"/>
		<path class="st1" d="M423.29,400.34l-0.72-3.05l17.27-4.07l0.72,3.05L423.29,400.34z"/>
		<g>
			<path class="st0" d="M309.01,29.72C309.01,29.72,309.01,29.72,309.01,29.72L309.01,29.72L309.01,29.72
				C309.01,29.72,309.01,29.72,309.01,29.72c-0.07,0.05-23.51,16.48-23.51,41.51c0,27.68,19.79,35.1,19.79,35.1h2.15h1.21
				c-17.19-27.33,0.41-44.63,0.48-44.7c0,0,0,0,0,0c0,0,0,0,0,0c0.07,0.07,17.67,17.37,0.48,44.7h0.96h2.15
				c0,0,19.79-7.42,19.79-35.1C332.52,46.2,309.08,29.77,309.01,29.72z"/>
			<g>
				<path class="st1" d="M264.4,102.41c0,0,16.7,10.52,19.9,30.19s-7.32,32.02-21.27,43.91c-13.95,11.89-61.75,45.97-57.63,100.17
					c4.12,54.2,49.89,70.04,56.98,73.24c27.9,12.58,31.79,18.5,34.45,17.33c1.05-0.46,1.06-1.7-2.34-6.38
					c-3.4-4.68-16.27-17.65-32.11-26.9c-15.84-9.25-41.09-35.69-37.43-66.03c4.68-38.74,24.88-55.61,35.73-65.07
					c6.26-5.46,26.12-23.01,35.94-41.17c7.19-13.3,6.2-28.02,4.57-33.15c-4.21-13.19-10.1-17.97-17.97-22.86
					C275.34,100.8,260.26,98.59,264.4,102.41z"/>
				<path class="st1" d="M305.29,106.33c0,0,1.49,26.58,5.26,36.35c3.77,9.77,9.77,23.99,26.21,40.43
					c13.54,13.54,49.34,43.86,53.97,70.24c4.63,26.38,2.06,47.28-18.85,67.67s-46.43,30.32-50.37,44.03c0,0-0.43,1.5,1.18,1.63
					c1.64,0.14,13.68-7.3,24.18-11.4c10.11-3.94,54.65-24.5,62.7-60.82c8.05-36.32,0-55.85-14.39-77.44s-45.23-42.15-58.59-55.51
					s-25.1-28.5-23.86-55.19H305.29z"/>
				<path class="st1" d="M371.37,255.41c-0.86-1.03-1.99-0.52-1.88,0.51c0.22,2.11-0.26,13.8-8.84,27.67
					c-6.01,9.71-16.86,15.51-31.93,26.82c-15.08,11.31-19.87,25.01-19.87,25.01l0,0.03l-0.24-0.03c0,0-4.8-13.71-19.87-25.01
					c-15.08-11.31-25.92-17.11-31.93-26.82c-8.59-13.87-9.06-25.56-8.84-27.67c0.11-1.03-1.03-1.54-1.88-0.51
					c-0.86,1.03-6.83,10.54-5.65,23.13c1.12,12.04,4.45,23.47,23.47,38.38c19.02,14.9,31.18,23.64,36.32,33.24
					c5.14,9.59,6.85,19.02,7.02,20.22c0.08,0.56,0.19,1.91,1.47,1.91c1.12,0,1.43-1.34,1.51-1.91c0.17-1.2,1.88-10.62,7.02-20.22
					c5.14-9.59,17.3-18.33,36.32-33.24c19.02-14.9,22.97-25.51,23.47-38.38C377.51,265.9,372.22,256.44,371.37,255.41z"/>
			</g>
			<path class="st2" d="M309.01,223.21"/>
			<path class="st0" d="M340.03,219.1c-17.15-9.54-31.02,4.11-31.02,4.11s-13.87-13.65-31.02-4.11
				c-17.15,9.54-15.76,28.75-14.98,33.46c1.01,6.11,4.61,19.44,22.36,32.49c17.76,13.05,23.63,16.91,23.63,16.91
				s5.88-3.87,23.63-16.91C350.4,272,354,258.67,355.01,252.56C355.79,247.84,357.18,228.64,340.03,219.1z"/>
			<path class="st3" d="M333.43,229.25c-12.72-6.72-24.18,8.81-24.18,8.81l-0.24,0.25l-0.23-0.25c0,0-11.46-15.53-24.18-8.81
				s-10.5,20.25-9.51,23.48c0.99,3.23,3.67,13.27,16.85,22.46c13.17,9.19,17.14,12.34,17.14,12.34s3.85-3.15,17.03-12.34
				c13.17-9.19,15.86-19.23,16.85-22.46C343.92,249.5,346.15,235.97,333.43,229.25z"/>
		</g>
		<g>
			<g>
				<path class="st0" d="M145.03,491.14h4.88l14.14,33.75h-6.89l-3.6-8.71h-12.09l-3.6,8.71h-6.89L145.03,491.14z M143.58,510.29
					h7.75l-3.83-10.35h-0.09L143.58,510.29z"/>
				<path class="st0" d="M167.29,491.14h8.66l8.98,25.54h0.09l8.89-25.54h8.66v33.75h-6.25v-25.31h-0.14l-8.62,25.31h-5.29
					l-8.66-25.31h-0.09v25.31h-6.25V491.14z"/>
				<path class="st0" d="M219.82,491.14h4.88l14.14,33.75h-6.89l-3.6-8.71h-12.09l-3.6,8.71h-6.89L219.82,491.14z M218.36,510.29
					h7.75l-3.83-10.35h-0.09L218.36,510.29z"/>
				<path class="st0" d="M242.49,491.14h6.25v27.91h10.31v5.84h-16.55V491.14z"/>
				<path class="st0" d="M286.4,491.14h4.88l14.14,33.75h-6.89l-3.6-8.71h-12.09l-3.6,8.71h-6.89L286.4,491.14z M284.94,510.29h7.75
					l-3.83-10.35h-0.09L284.94,510.29z"/>
				<path class="st0" d="M309.07,491.14h6.25v27.91h10.31v5.84h-16.55V491.14z"/>
				<path class="st0" d="M328.77,491.14h10.35c3.88,0,6.29,0.73,8.21,2.28c1.92,1.55,3.97,4.29,3.97,8.16
					c0,2.23-0.82,5.75-3.24,8.07c-2.01,1.91-3.92,2.37-5.61,2.78l9.17,12.45h-7.57l-8.94-12.91h-0.09v12.91h-6.25V491.14z
					 M335.01,507.28h4.01c5.15,0,6.02-3.42,6.02-5.2c0-1.87-1.14-5.11-6.02-5.11h-4.01V507.28z"/>
				<path class="st0" d="M366.66,491.14h4.88l14.14,33.75h-6.89l-3.6-8.71H363.1l-3.6,8.71h-6.89L366.66,491.14z M365.2,510.29h7.75
					l-3.83-10.35h-0.09L365.2,510.29z"/>
				<path class="st0" d="M389.28,491.14h6.25v13.73h12.09v-13.73h6.25v33.75h-6.25V510.7h-12.09v14.18h-6.25V491.14z"/>
				<path class="st0" d="M419.83,491.14h18.15v5.84h-11.9v8.26h11.4v5.84h-11.4v7.98h11.9v5.84h-18.15V491.14z"/>
				<path class="st0" d="M443.64,491.14h8.66l8.98,25.54h0.09l8.89-25.54h8.66v33.75h-6.25v-25.31h-0.14l-8.62,25.31h-5.29
					l-8.66-25.31h-0.09v25.31h-6.25V491.14z"/>
			</g>
		</g>
		<g>
			<g>
				<path class="st1" d="M131.12,537.69h6.34c3.56,0,7.12,0,9.9,2.47c1.61,1.43,2.74,3.78,2.74,5.99c0,4.04-2.61,5.56-3.6,6.12
					c2.13,0.78,5.52,2.56,5.52,7.99c0,3.86-2.04,6.25-4,7.64c-2.43,1.69-6.21,1.91-8.29,1.91h-8.6V537.69z M137.07,550.2h1.95
					c1.39,0,5.12,0,5.12-3.47c0-1.91-1.22-3.47-4.6-3.47h-2.47V550.2z M137.07,564.27h3c1.17,0,5.99,0,5.99-4.21
					c0-1.3-0.65-4.3-5.86-4.3h-3.13V564.27z"/>
				<path class="st1" d="M163.99,537.69h5.95v32.13h-5.95V537.69z"/>
				<path class="st1" d="M183.4,537.69h9.86c3.69,0,5.99,0.69,7.82,2.17c1.82,1.48,3.78,4.08,3.78,7.77c0,2.13-0.78,5.47-3.08,7.69
					c-1.91,1.82-3.73,2.26-5.34,2.65l8.73,11.85h-7.21l-8.51-12.29h-0.09v12.29h-5.95V537.69z M189.35,553.06h3.82
					c4.91,0,5.73-3.26,5.73-4.95c0-1.78-1.09-4.86-5.73-4.86h-3.82V553.06z"/>
				<path class="st1" d="M220.31,543.25h-5.95v-5.56h17.89v5.56h-5.99v26.58h-5.95V543.25z"/>
				<path class="st1" d="M243.02,537.69h5.95v13.07h11.51v-13.07h5.95v32.13h-5.95v-13.5h-11.51v13.5h-5.95V537.69z"/>
				<path class="st1" d="M329.92,560.88c-2.52,5.91-8.68,9.6-14.85,9.6c-9.29,0-16.76-7.77-16.76-16.85
					c0-8.86,7.34-16.59,16.63-16.59c5.34,0,12.07,2.78,15.15,9.81h-6.77c-2.3-2.65-5.04-4.26-8.6-4.26
					c-5.21,0-10.47,4.69-10.47,11.12c0,6.04,4.99,11.2,10.68,11.2c4.3,0,6.64-2.52,8.08-4.04H329.92z"/>
				<path class="st1" d="M341.42,537.69h5.95v32.13h-5.95V537.69z"/>
				<path class="st1" d="M360.84,537.69h9.86c3.69,0,5.99,0.69,7.82,2.17c1.82,1.48,3.78,4.08,3.78,7.77c0,2.13-0.78,5.47-3.08,7.69
					c-1.91,1.82-3.73,2.26-5.34,2.65l8.73,11.85h-7.21l-8.51-12.29h-0.09v12.29h-5.95V537.69z M366.79,553.06h3.82
					c4.91,0,5.73-3.26,5.73-4.95c0-1.78-1.09-4.86-5.73-4.86h-3.82V553.06z"/>
				<path class="st1" d="M423.93,560.88c-2.52,5.91-8.68,9.6-14.85,9.6c-9.29,0-16.76-7.77-16.76-16.85
					c0-8.86,7.34-16.59,16.63-16.59c5.34,0,12.07,2.78,15.15,9.81h-6.77c-2.3-2.65-5.04-4.26-8.6-4.26
					c-5.21,0-10.47,4.69-10.47,11.12c0,6.04,4.99,11.2,10.68,11.2c4.3,0,6.64-2.52,8.08-4.04H423.93z"/>
				<path class="st1" d="M435.44,537.69h5.95v26.58h9.81v5.56h-15.76V537.69z"/>
				<path class="st1" d="M461.67,537.69h17.28v5.56h-11.33v7.86h10.86v5.56h-10.86v7.6h11.33v5.56h-17.28V537.69z"/>
			</g>
		</g>
	</g>
</g>
</svg>
