<?xml version="1.0" encoding="utf-8"?>
<!-- Generator: Adobe Illustrator 26.4.1, SVG Export Plug-In . SVG Version: 6.00 Build 0)  -->
<svg version="1.1" xmlns="http://www.w3.org/2000/svg" xmlns:xlink="http://www.w3.org/1999/xlink" x="0px" y="0px"
	 viewBox="0 0 612 612.39" style="enable-background:new 0 0 612 612.39;" xml:space="preserve">
<style type="text/css">
	.st0{fill:#E09181;}
	.st1{fill:#DABA7A;}
	.st2{fill:#F3716D;}
	.st3{fill:#FBC9BC;}
</style>
<g id="Layer_1">
</g>
<g id="Layer_2">
	<g>
		<g>
			<g>
				<path class="st0" d="M140,440.04c0-14.94,4.55-23.34,13.75-25.18c-0.09-1.53-0.19-3.48-0.19-5.83c0-8.19,1.77-14.53,5.2-18.94
					c3.44-4.4,8.36-6.65,14.96-6.65c6.69,0,11.89,2.25,15.52,6.65c3.62,4.4,5.39,10.75,5.39,18.94c0,2.87-0.19,5.53-0.65,7.88
					c1.02,4.81,4.37,7.37,10.04,7.57h1.3v10.34h-1.39c-6.5-0.1-11.34-2.66-14.4-7.57c-4,5.02-9.57,7.57-16.82,7.57
					s-12.45-3.07-15.52-9.31c-4.83,1.54-7.25,6.35-7.25,14.33v13.82H140V440.04z M184.32,409.54c0-10.65-3.53-16.07-10.59-16.17
					c-6.97,0-10.5,5.32-10.59,16.07c0,9.93,3.53,15.05,10.59,15.15C180.79,424.59,184.32,419.57,184.32,409.54z"/>
				<path class="st0" d="M204.39,424.49h34.75c0.19-3.17,0.28-6.45,0.28-9.62c0-5.63-1.3-10.44-3.81-14.43
					c-2.88-4.61-6.69-6.96-11.43-6.96c-4.93,0-9.11,2.66-12.36,8.09l-7.15-7.06c0.65-1.02,1.39-2.05,2.23-2.97
					c5.02-5.73,10.87-8.6,17.47-8.6c7.53,0,13.85,3.58,18.96,10.64c3.81,5.53,5.67,12.49,5.67,20.98
					c-0.09,7.47-0.37,14.23-0.65,20.27h-43.95V424.49z"/>
				<path class="st0" d="M266.64,432.47v-48.82h10.22v40.84h8.73v10.34h-8.83c-0.74,12.38-6.97,18.53-18.68,18.63h-4.46v-10.34h3.44
					C263.48,443.12,266.64,439.53,266.64,432.47z"/>
				<path class="st0" d="M284.2,424.49h1.02c5.76-0.1,8.64-3.89,8.64-11.36v-48.52h10.22v48c0,14.33-6.04,21.7-18.12,22.21h-1.77
					V424.49z"/>
				<path class="st0" d="M313.38,434.83v-70.22h10.5v70.22H313.38z"/>
				<path class="st0" d="M357.7,448.03c-4-3.79-5.95-9.31-5.95-16.68v-29.89h10.22v29.89c0,3.99,1.11,6.96,3.34,8.9
					c2.23,1.94,4.83,2.87,7.71,2.87c2.88,0,5.48-0.92,7.71-2.97c2.23-1.94,3.34-4.91,3.34-8.9v-66.63h10.22v59.88h10.31v10.34h-10.5
					c-0.56,5.53-2.51,9.83-5.76,13c-4,3.79-9.2,5.63-15.42,5.63v0.2C366.71,453.66,361.69,451.82,357.7,448.03z"/>
				<path class="st0" d="M404.15,424.49h7.99c-2.23-4.2-3.34-9.42-3.34-15.76c0-7.98,1.86-14.23,5.57-18.63
					c3.62-4.4,8.73-6.65,15.33-6.65c6.69,0,11.89,2.25,15.52,6.65c3.62,4.4,5.39,10.75,5.39,18.94c0,8.9-2.14,15.46-6.41,19.75
					c-3.62,3.99-8.92,6.04-15.8,6.04h-24.25V424.49z M440.3,409.54c0-10.65-3.53-16.07-10.59-16.17c-6.97,0-10.5,5.32-10.59,16.07
					c0,10.13,3.53,15.15,10.59,15.15C436.77,424.59,440.3,419.57,440.3,409.54z"/>
				<path class="st0" d="M462.23,356.11c-1.95-1.02-2.88-2.87-2.88-5.53c0-2.66,1.02-4.61,2.97-5.94c0.93-0.61,1.95-0.92,3.07-0.92
					c1.21,0,2.6,0.41,4.09,1.13l-0.09,4.2c-0.84-0.31-1.58-0.41-2.23-0.41c-2.04,0.1-3.07,1.02-3.07,2.97
					c0,2.15,1.49,3.17,4.37,3.17c0.65,0,1.67-0.1,3.07-0.31l-0.19,4.2c-4.37,0.72-8.18,1.74-11.43,3.07l-0.65-4.4
					C459.9,356.93,460.92,356.52,462.23,356.11z M459.9,364.61h10.5v70.22h-10.5V364.61z"/>
			</g>
		</g>
		<path class="st1" d="M383.55,349.38c0.68-1.52,2.48-2.16,4.12-1.33l3.86,2l-3.33,7.94c-0.68,1.52-2.41,2.17-4.05,1.34l-2.26-1.15
			l0.94-2.27l2.03,1.06c0.55,0.3,0.93,0.28,1.08-0.14l0.21-0.58l-1.58-0.82c-0.8-0.43-1.37-1.08-1.64-1.95
			c-0.37-0.85-0.4-1.7-0.09-2.47L383.55,349.38z M385.16,352.27c-0.16,0.42-0.06,0.72,0.36,0.92l1.58,0.82l1.23-2.9l-1.58-0.81
			c-0.42-0.2-0.7-0.13-0.86,0.29L385.16,352.27z"/>
		<g>
			<g>
				<g>
					<path class="st1" d="M265.64,376.47c-0.72-0.61-1.21-1.58-1.49-2.97l-0.61-3.4l2.7-0.61l0.55,3.28
						c0.17,0.67,0.39,1.15,0.66,1.4c0.28,0.24,0.55,0.36,0.88,0.36c0.99,0,1.54-0.85,1.65-2.49c0-0.79-0.11-1.88-0.39-3.15
						l2.75-0.42l0.55,3.28c0.22,1.03,0.72,1.52,1.49,1.52c0.99,0,1.49-0.61,1.54-1.76c0-1.03-0.28-2.37-0.77-4l2.75-0.67l0.11,0.49
						c0.06,0.36,0.17,0.79,0.22,1.27c0.06,0.49,0.17,0.97,0.22,1.46c0.05,0.49,0.11,0.91,0.11,1.21c0,3.22-1.49,4.85-4.41,4.91
						c-0.5,0-0.94-0.18-1.38-0.49c-0.44-0.3-0.77-0.61-0.99-0.97c-0.28,0.79-0.72,1.4-1.38,2c-0.61,0.55-1.43,0.85-2.37,0.85
						l0.06-0.18C267.19,377.38,266.36,377.08,265.64,376.47z"/>
				</g>
			</g>
			<path class="st1" d="M262.17,368.15l-0.68-2.88l16.31-3.84l0.68,2.88L262.17,368.15z"/>
		</g>
		<path class="st1" d="M219.7,445.27l-0.68-2.88l16.31-3.84l0.68,2.88L219.7,445.27z"/>
		<path class="st1" d="M416.77,377.85l-0.68-2.88l16.31-3.84l0.68,2.88L416.77,377.85z"/>
		<g>
			<g>
				<path class="st1" d="M144.12,487.78c-1.35-1.6-2-4-2.04-7.23c0-3.08,0.69-5.48,2.07-7.2c1.35-1.71,3.25-2.55,5.7-2.55
					c1.35,0,3.77,0.53,7.33,1.56l0.04,8.3c0,3.77,1.28,5.67,3.84,5.67h0.69v3.85c-2.63,0-4.53-0.84-5.74-2.51
					c-1.14,1.64-3.04,2.48-5.74,2.51h-0.41C147.36,490.17,145.46,489.38,144.12,487.78z M145.88,468.17
					c-0.42-0.42-0.62-0.99-0.62-1.67c0-0.69,0.21-1.26,0.62-1.71c0.41-0.42,0.93-0.65,1.55-0.65c0.62,0,1.14,0.23,1.56,0.69
					c0.38,0.46,0.59,1.03,0.59,1.71c0,0.65-0.21,1.22-0.62,1.68c-0.42,0.46-0.93,0.69-1.55,0.69l0.03-0.04
					C146.81,468.85,146.29,468.62,145.88,468.17z M153.38,482.29v-7.08c-1.31-0.38-2.49-0.57-3.52-0.57c-2.59,0-3.91,2.06-3.94,6.21
					c0.03,3.92,1.31,5.86,3.84,5.86h0.41C152.31,486.67,153.38,485.22,153.38,482.29z M151.1,468.13c-0.41-0.42-0.62-0.99-0.62-1.68
					c0-0.69,0.21-1.26,0.62-1.71c0.41-0.42,0.93-0.65,1.55-0.65c0.62,0,1.14,0.23,1.56,0.69c0.38,0.46,0.59,1.03,0.59,1.71
					c0,0.65-0.21,1.22-0.62,1.67c-0.41,0.46-0.93,0.69-1.55,0.69l0.03-0.04C152.03,468.81,151.51,468.59,151.1,468.13z"/>
				<path class="st1" d="M167.14,487.4c-1.07,1.9-2.7,2.86-4.84,2.86h-0.97v-3.85h0.76c1.56-0.04,2.35-1.56,2.35-4.49v-10.7h3.8
					v9.02c0,4.11,1.17,6.17,3.56,6.17h0.83v3.85h-0.97C169.63,490.25,168.14,489.3,167.14,487.4z M162.4,496.53
					c-0.41-0.46-0.62-1.03-0.62-1.71c0-0.69,0.21-1.26,0.62-1.71c0.41-0.46,0.93-0.69,1.56-0.69s1.14,0.23,1.55,0.69
					c0.38,0.42,0.59,0.99,0.59,1.68c0,0.65-0.21,1.22-0.62,1.68c-0.41,0.46-0.93,0.69-1.55,0.69l0.04,0.08
					C163.34,497.22,162.82,496.99,162.4,496.53z M167.45,496.61c-0.42-0.46-0.62-1.03-0.62-1.71s0.21-1.26,0.62-1.71
					c0.41-0.46,0.93-0.69,1.55-0.69s1.14,0.23,1.55,0.69c0.38,0.42,0.59,0.99,0.59,1.67c0,0.65-0.21,1.22-0.62,1.68
					c-0.42,0.46-0.93,0.69-1.56,0.69l0.04,0.08C168.38,497.29,167.86,497.07,167.45,496.61z"/>
				<path class="st1" d="M172.29,486.4h4.39l-4.15-5.25l0.31-0.99c1.28-4.04,3.25-6.78,5.88-8.19c1.04-0.53,2.07-0.8,3.11-0.8
					c0.79,0,1.56,0.15,2.35,0.46c2.18,0.84,3.73,2.4,4.63,4.72c0.48,1.26,0.73,2.51,0.73,3.77c0,2.25-0.69,4.34-2.04,6.28h4.04v3.85
					h-19.25V486.4z M184.18,484.73c1.28-1.37,1.94-2.97,1.94-4.8c0-0.61-0.1-1.22-0.28-1.79c-0.45-1.41-1.31-2.36-2.63-2.89
					c-0.45-0.19-0.9-0.27-1.35-0.27c-2.25,0-4.04,1.79-5.39,5.41l4.73,5.98C182.31,486.25,183.31,485.68,184.18,484.73z"/>
				<path class="st1" d="M197,487.4c-1.07,1.9-2.7,2.86-4.84,2.86h-0.97v-3.85h0.76c1.56-0.04,2.35-1.56,2.35-4.49v-10.7h3.8v9.02
					c0,4.11,1.17,6.17,3.56,6.17h0.83v3.85h-0.97C199.49,490.25,198.01,489.3,197,487.4z M192.27,496.53
					c-0.41-0.46-0.62-1.03-0.62-1.71c0-0.69,0.21-1.26,0.62-1.71c0.42-0.46,0.93-0.69,1.56-0.69s1.14,0.23,1.55,0.69
					c0.38,0.42,0.59,0.99,0.59,1.68c0,0.65-0.21,1.22-0.62,1.68c-0.41,0.46-0.93,0.69-1.55,0.69l0.04,0.08
					C193.2,497.22,192.68,496.99,192.27,496.53z M197.32,496.61c-0.42-0.46-0.62-1.03-0.62-1.71s0.21-1.26,0.62-1.71
					c0.41-0.46,0.93-0.69,1.55-0.69s1.14,0.23,1.55,0.69c0.38,0.42,0.59,0.99,0.59,1.67c0,0.65-0.21,1.22-0.62,1.68
					c-0.42,0.46-0.93,0.69-1.56,0.69l0.04,0.08C198.25,497.29,197.73,497.07,197.32,496.61z"/>
				<path class="st1" d="M208,487.47c-1.07,1.9-2.7,2.86-4.84,2.86h-0.97v-3.85h0.76c1.55-0.11,2.35-1.64,2.35-4.49v-10.7h3.8v9.02
					c0,4.11,1.17,6.17,3.56,6.17h0.83v3.85h-0.97C210.48,490.33,209,489.38,208,487.47z M205.54,496.49
					c-0.42-0.46-0.62-1.03-0.62-1.71c0-0.69,0.21-1.26,0.62-1.71c0.41-0.46,0.93-0.69,1.55-0.69c0.62,0,1.14,0.23,1.56,0.69
					c0.38,0.42,0.59,0.99,0.59,1.67c0,0.65-0.21,1.22-0.62,1.68c-0.42,0.46-0.93,0.69-1.55,0.69l0.03,0.08
					C206.47,497.18,205.96,496.95,205.54,496.49z"/>
				<path class="st1" d="M213.11,486.4h4.04c0.03-3.08,0.03-10.51,0.03-22.24h3.8v12.64c1.21-1.79,2.73-3.27,4.49-4.42
					c1.52-0.95,3.08-1.41,4.7-1.41c3.01,0,5.39,1.22,7.15,3.69c1.14,1.71,1.87,3.54,2.18,5.56c0.24,1.45,0.38,3.77,0.38,7.01
					l-0.04,3.01h-26.75V486.4z M234.71,478.14c-1-1.83-2.45-2.74-4.39-2.78c-1.9,0-3.77,0.84-5.53,2.48
					c-1.28,1.14-2.45,2.7-3.49,4.65c-0.31,0.57-0.45,0.99-0.45,1.26v2.67h15.17v-1.29C236.03,482.1,235.58,479.78,234.71,478.14z"/>
				<path class="st1" d="M265.48,478.9v11.27c-2.45-0.04-4.87-0.04-7.33-0.04c-2.45,0-4.35-0.84-5.74-2.51
					c-1.38-1.68-2.07-4.04-2.07-7.04c0-3.12,0.69-5.52,2.04-7.23c1.35-1.71,3.25-2.55,5.74-2.55h0.42
					C263.16,470.87,265.48,473.57,265.48,478.9z M253.52,466.49c0-0.69,0.21-1.26,0.62-1.71c0.41-0.42,0.93-0.65,1.55-0.65
					c0.62,0,1.14,0.23,1.56,0.69c0.38,0.46,0.59,1.03,0.59,1.71c0,0.65-0.21,1.22-0.62,1.68c-0.41,0.46-0.93,0.69-1.55,0.69
					l0.03-0.04c-0.62,0-1.14-0.23-1.55-0.69C253.73,467.75,253.52,467.18,253.52,466.49z M261.68,478.75c0-2.78-1.21-4.19-3.63-4.19
					c-2.56,0-3.84,1.87-3.84,5.56c0.04,3.92,1.35,5.9,3.94,5.9l3.53,0.04V478.75z M258.74,466.45c0-0.69,0.21-1.26,0.62-1.71
					c0.42-0.42,0.93-0.65,1.55-0.65c0.62,0,1.14,0.23,1.56,0.69c0.38,0.46,0.59,1.03,0.59,1.71c0,0.65-0.21,1.22-0.62,1.67
					s-0.93,0.69-1.55,0.69l0.03-0.04c-0.62,0-1.14-0.23-1.55-0.69C258.95,467.71,258.74,467.14,258.74,466.45z M265.48,490.17h0.03
					H265.48z"/>
				<path class="st1" d="M268.87,486.4h9.19v-5.44c0-1.87-0.34-3.35-1.11-4.46c-0.72-1.07-1.76-1.6-3.11-1.6
					c-0.86,0-2.11,0.27-3.77,0.84l-0.24-3.69c1.21-0.65,2.59-0.99,4.15-0.99c2.45,0,4.42,0.88,5.84,2.67
					c1.42,1.79,2.14,4.19,2.14,7.27v9.25h-13.1V486.4z"/>
				<path class="st1" d="M285.5,486.4h6.32c2.11,0,3.14-1.45,3.14-4.38v-17.9h3.8v17.9c0,5.44-2.14,8.19-6.39,8.22h-6.95
					L285.5,486.4z M287.61,466.03h3.56v18.5h-3.56V466.03z"/>
				<path class="st1" d="M308.38,493.33h1.62c2.35,0,3.52-1.07,3.52-3.24v-0.27c-1,0.49-2.18,0.76-3.49,0.76
					c-2.49,0-4.39-0.88-5.77-2.63c-1.35-1.71-2.04-4.19-2.04-7.35c0-3.08,0.69-5.48,2.07-7.2c1.35-1.71,3.25-2.55,5.7-2.55
					c1.35,0,3.77,0.53,7.33,1.56v13.97h2.83v3.85h-2.87c-0.28,4.61-2.59,6.89-6.95,6.93h-1.97V493.33z M313.53,486.02v-10.74
					c-1.31-0.38-2.49-0.57-3.52-0.57c-2.59,0-3.91,2.06-3.94,6.21c0,3.88,1.28,5.83,3.84,5.83h0.1
					C311.21,486.75,312.39,486.52,313.53,486.02z"/>
				<path class="st1" d="M319.65,486.4h0.38c2.14-0.04,3.21-1.45,3.21-4.23v-18.05h3.8v17.86c0,5.33-2.25,8.07-6.74,8.26h-0.66
					V486.4z"/>
				<path class="st1" d="M339.53,487.78c-1.35-1.6-2-4-2.04-7.23c0-3.08,0.69-5.48,2.07-7.2c1.35-1.71,3.25-2.55,5.7-2.55
					c1.35,0,3.77,0.53,7.33,1.56l0.04,8.3c0,3.77,1.28,5.67,3.84,5.67h0.69v3.85c-2.63,0-4.53-0.84-5.74-2.51
					c-1.14,1.64-3.04,2.48-5.74,2.51h-0.42C342.77,490.17,340.87,489.38,339.53,487.78z M341.29,468.17
					c-0.42-0.42-0.62-0.99-0.62-1.67c0-0.69,0.21-1.26,0.62-1.71c0.41-0.42,0.93-0.65,1.55-0.65c0.62,0,1.14,0.23,1.56,0.69
					c0.38,0.46,0.59,1.03,0.59,1.71c0,0.65-0.21,1.22-0.62,1.68c-0.42,0.46-0.93,0.69-1.55,0.69l0.03-0.04
					C342.22,468.85,341.7,468.62,341.29,468.17z M348.79,482.29v-7.08c-1.31-0.38-2.49-0.57-3.52-0.57c-2.59,0-3.91,2.06-3.94,6.21
					c0.03,3.92,1.31,5.86,3.84,5.86h0.42C347.72,486.67,348.79,485.22,348.79,482.29z M346.51,468.13
					c-0.41-0.42-0.62-0.99-0.62-1.68c0-0.69,0.21-1.26,0.62-1.71c0.42-0.42,0.93-0.65,1.55-0.65c0.62,0,1.14,0.23,1.56,0.69
					c0.38,0.46,0.59,1.03,0.59,1.71c0,0.65-0.21,1.22-0.62,1.67c-0.41,0.46-0.93,0.69-1.55,0.69l0.03-0.04
					C347.44,468.81,346.92,468.59,346.51,468.13z"/>
				<path class="st1" d="M361.86,487.4c-1.07,1.9-2.7,2.86-4.84,2.86h-0.45v-3.85c1.73,0,2.59-1.48,2.59-4.49v-10.7h3.8V481
					c0,3.62,1.07,5.41,3.21,5.41h1.17v3.85h-0.97C364.35,490.21,362.86,489.26,361.86,487.4z M359.47,468.17
					c-0.41-0.42-0.62-0.99-0.62-1.67c0-0.69,0.21-1.26,0.62-1.71c0.42-0.42,0.93-0.65,1.56-0.65c0.62,0,1.14,0.23,1.55,0.69
					c0.38,0.46,0.59,1.03,0.59,1.71c0,0.65-0.21,1.22-0.62,1.68c-0.41,0.46-0.93,0.69-1.55,0.69l0.04-0.04
					C360.41,468.85,359.89,468.62,359.47,468.17z"/>
				<path class="st1" d="M367.18,486.4h2.97c-0.83-1.56-1.24-3.5-1.24-5.86c0-2.97,0.69-5.29,2.07-6.93
					c1.35-1.64,3.25-2.47,5.7-2.47c2.49,0,4.42,0.84,5.77,2.47c1.35,1.64,2,4,2,7.04c0,3.31-0.79,5.75-2.38,7.35
					c-1.35,1.49-3.32,2.25-5.87,2.25h-9.02V486.4z M380.63,480.85c0-3.96-1.31-5.98-3.94-6.02c-2.59,0-3.91,1.98-3.94,5.98
					c0,3.77,1.31,5.64,3.94,5.64C379.31,486.44,380.63,484.58,380.63,480.85z"/>
				<path class="st1" d="M390.51,462.19c-0.24-0.11-0.52-0.27-0.83-0.53c-0.24-0.19-0.41-0.3-0.55-0.38
					c-0.14-0.08-0.28-0.11-0.45-0.11c-0.38,0-0.55,0.34-0.59,0.99h-1.66c0.14-1.87,0.86-2.78,2.14-2.78c0.66,0,1.28,0.27,1.87,0.76
					c0.21,0.19,0.38,0.3,0.52,0.34c0.1,0.04,0.24,0.08,0.34,0.08c0.42,0,0.69-0.5,0.83-1.45c0.17,0.11,0.28,0.23,0.38,0.27
					c0.1,0.04,0.17,0.08,0.21,0.15l0.14,0.11c0.03,0.04,0.1,0.08,0.21,0.15l0.42,0.27c-0.24,1.56-0.93,2.36-2.11,2.36v-0.08
					C391.07,462.34,390.75,462.3,390.51,462.19z M387.92,464.05h3.91v26.12h-3.91V464.05z"/>
				<path class="st1" d="M404.31,487.78c-1.35-1.6-2-4-2.04-7.23c0-3.08,0.69-5.48,2.07-7.2c1.35-1.71,3.25-2.55,5.7-2.55
					c1.35,0,3.77,0.53,7.33,1.56l0.04,8.3c0,3.77,1.28,5.67,3.84,5.67h0.69v3.85c-2.63,0-4.53-0.84-5.74-2.51
					c-1.14,1.64-3.04,2.48-5.74,2.51h-0.42C407.55,490.17,405.65,489.38,404.31,487.78z M406.07,468.17
					c-0.42-0.42-0.62-0.99-0.62-1.67c0-0.69,0.21-1.26,0.62-1.71c0.42-0.42,0.93-0.65,1.55-0.65c0.62,0,1.14,0.23,1.56,0.69
					c0.38,0.46,0.59,1.03,0.59,1.71c0,0.65-0.21,1.22-0.62,1.68s-0.93,0.69-1.55,0.69l0.03-0.04
					C407,468.85,406.48,468.62,406.07,468.17z M413.57,482.29v-7.08c-1.31-0.38-2.49-0.57-3.52-0.57c-2.59,0-3.91,2.06-3.94,6.21
					c0.03,3.92,1.31,5.86,3.84,5.86h0.42C412.5,486.67,413.57,485.22,413.57,482.29z M411.29,468.13c-0.42-0.42-0.62-0.99-0.62-1.68
					c0-0.69,0.21-1.26,0.62-1.71c0.42-0.42,0.93-0.65,1.55-0.65c0.62,0,1.14,0.23,1.56,0.69c0.38,0.46,0.59,1.03,0.59,1.71
					c0,0.65-0.21,1.22-0.62,1.67s-0.93,0.69-1.55,0.69l0.03-0.04C412.22,468.81,411.7,468.59,411.29,468.13z"/>
				<path class="st1" d="M422.07,496.53c-0.42-0.46-0.62-1.03-0.62-1.71c0-0.69,0.21-1.26,0.62-1.71s0.93-0.69,1.55-0.69
					c0.62,0,1.14,0.23,1.56,0.69c0.38,0.42,0.59,0.99,0.59,1.68c0,0.65-0.21,1.22-0.62,1.68c-0.42,0.46-0.93,0.69-1.55,0.69
					l0.03,0.08C423.01,497.22,422.49,496.99,422.07,496.53z M426.36,482.33v-10.97h3.8v10.78c0,5.48-2.18,8.22-6.5,8.26h-2.11v-3.85
					h1.42C425.22,486.56,426.36,485.15,426.36,482.33z M426.77,496.61c-0.41-0.46-0.62-1.03-0.62-1.71s0.21-1.26,0.62-1.71
					c0.42-0.46,0.93-0.69,1.56-0.69c0.62,0,1.14,0.23,1.55,0.69c0.38,0.42,0.59,0.99,0.59,1.67c0,0.65-0.21,1.22-0.62,1.68
					c-0.41,0.46-0.93,0.69-1.56,0.69l0.04,0.08C427.71,497.29,427.19,497.07,426.77,496.61z"/>
				<path class="st1" d="M434.31,482.18l0.03-18.05h3.84l-0.1,18.31c0,2.63,0.86,3.96,2.56,3.96h1.76v3.85l-2.42-0.04
					C436.21,490.21,434.31,487.55,434.31,482.18z"/>
				<path class="st1" d="M442.16,486.4h2.73c-0.66-1.48-1-3.31-1-5.44c0-3.08,0.73-5.48,2.14-7.27c1.42-1.79,3.35-2.67,5.84-2.67
					c2.35,0,4.32,0.76,5.88,2.28l-1.49,3.43c-1.38-1.26-2.8-1.86-4.25-1.86c-1.35,0-2.38,0.53-3.14,1.64
					c-0.76,1.1-1.14,2.55-1.14,4.42c0,2.7,0.76,4.53,2.31,5.48h7.5v3.85h-15.38V486.4z"/>
				<path class="st1" d="M464.32,489.38v-18.16h3.8v18.05c0,5.25-2.32,7.88-6.98,7.92h-1.62v-3.85h1.24
					C463.14,493.33,464.32,492,464.32,489.38z"/>
			</g>
		</g>
		<g>
			<path class="st0" d="M308.85,27.85C308.85,27.85,308.85,27.85,308.85,27.85L308.85,27.85L308.85,27.85
				C308.85,27.85,308.85,27.85,308.85,27.85c-0.07,0.05-22.2,15.56-22.2,39.2c0,26.14,18.69,33.15,18.69,33.15h2.03h1.14
				c-16.23-25.81,0.39-42.15,0.45-42.21c0,0,0,0,0,0c0,0,0,0,0,0c0.07,0.07,16.69,16.4,0.45,42.21h0.91h2.03
				c0,0,18.69-7.01,18.69-33.15C331.05,43.42,308.92,27.9,308.85,27.85z"/>
			<g>
				<path class="st1" d="M266.72,96.5c0,0,15.77,9.94,18.79,28.51c3.02,18.57-6.91,30.24-20.09,41.47
					c-13.17,11.23-58.32,43.41-54.43,94.6c3.89,51.19,47.11,66.15,53.81,69.16c26.35,11.88,30.02,17.47,32.53,16.37
					c0.99-0.44,1-1.61-2.21-6.02c-3.21-4.42-15.36-16.67-30.32-25.4c-14.96-8.74-38.81-33.71-35.34-62.36
					c4.42-36.58,23.5-52.51,33.74-61.45c5.91-5.16,24.67-21.73,33.94-38.88c6.79-12.56,5.86-26.46,4.31-31.31
					c-3.97-12.46-9.54-16.97-16.97-21.59C277.05,94.98,262.81,92.89,266.72,96.5z"/>
				<path class="st1" d="M305.33,100.2c0,0,1.41,25.1,4.97,34.33c3.56,9.22,9.22,22.65,24.75,38.18
					c12.78,12.78,46.6,41.42,50.96,66.33c4.37,24.92,1.94,44.65-17.8,63.91c-19.74,19.25-43.85,28.64-47.57,41.58
					c0,0-0.41,1.41,1.11,1.54c1.55,0.13,12.92-6.9,22.83-10.76c9.55-3.72,51.61-23.14,59.22-57.44c7.6-34.3,0-52.74-13.59-73.13
					c-13.59-20.39-42.71-39.8-55.33-52.42c-12.62-12.62-23.71-26.91-22.53-52.12H305.33z"/>
				<path class="st1" d="M367.74,240.99c-0.81-0.97-1.88-0.49-1.78,0.49c0.21,1.99-0.24,13.03-8.35,26.13
					c-5.68,9.17-15.92,14.65-30.16,25.32c-14.24,10.68-18.77,23.62-18.77,23.62l0,0.03l-0.22-0.03c0,0-4.53-12.94-18.77-23.62
					c-14.24-10.68-24.48-16.16-30.16-25.32c-8.11-13.1-8.56-24.14-8.35-26.13c0.1-0.98-0.97-1.46-1.78-0.49
					c-0.81,0.97-6.45,9.95-5.34,21.84c1.06,11.37,4.21,22.17,22.17,36.24c17.96,14.08,29.45,22.33,34.3,31.39
					c4.85,9.06,6.47,17.96,6.63,19.09c0.08,0.53,0.18,1.8,1.39,1.8c1.06,0,1.35-1.26,1.42-1.8c0.16-1.13,1.78-10.03,6.63-19.09
					c4.85-9.06,16.34-17.31,34.3-31.39c17.96-14.08,21.7-24.09,22.17-36.24C373.54,250.9,368.55,241.96,367.74,240.99z"/>
			</g>
			<path class="st2" d="M308.85,210.57"/>
			<path class="st0" d="M338.14,206.7c-16.2-9.01-29.29,3.88-29.29,3.88s-13.09-12.89-29.29-3.88c-16.2,9.01-14.88,27.15-14.15,31.6
				c0.95,5.77,4.35,18.36,21.12,30.68c16.77,12.32,22.32,15.97,22.32,15.97s5.55-3.65,22.32-15.97
				c16.77-12.32,20.17-24.91,21.12-30.68C353.02,233.84,354.34,215.71,338.14,206.7z"/>
			<path class="st3" d="M331.91,216.28c-12.02-6.35-22.84,8.32-22.84,8.32l-0.23,0.24l-0.22-0.24c0,0-10.82-14.67-22.84-8.32
				c-12.02,6.35-9.91,19.12-8.98,22.18s3.47,12.53,15.91,21.21c12.44,8.68,16.18,11.65,16.18,11.65s3.64-2.97,16.08-11.65
				c12.44-8.68,14.98-18.16,15.91-21.21S343.92,222.63,331.91,216.28z"/>
		</g>
		<g>
			<g>
				<path class="st0" d="M153.99,507.15h4.61l13.35,31.86h-6.5l-3.4-8.22h-11.41l-3.4,8.22h-6.5L153.99,507.15z M152.62,525.23h7.32
					l-3.62-9.77h-0.09L152.62,525.23z"/>
				<path class="st0" d="M175.01,507.15h8.18l8.48,24.11h0.09l8.4-24.11h8.18v31.86h-5.9v-23.9h-0.13l-8.14,23.9h-4.99l-8.18-23.9
					h-0.09v23.9h-5.9V507.15z"/>
				<path class="st0" d="M224.62,507.15h4.61l13.35,31.86h-6.5l-3.4-8.22h-11.41l-3.4,8.22h-6.5L224.62,507.15z M223.24,525.23h7.32
					l-3.62-9.77h-0.09L223.24,525.23z"/>
				<path class="st0" d="M246.03,507.15h5.9v26.35h9.73v5.51h-15.63V507.15z"/>
				<path class="st0" d="M287.5,507.15h4.61l13.35,31.86h-6.5l-3.4-8.22h-11.41l-3.4,8.22h-6.5L287.5,507.15z M286.12,525.23h7.32
					l-3.62-9.77h-0.09L286.12,525.23z"/>
				<path class="st0" d="M308.9,507.15h5.9v26.35h9.73v5.51H308.9V507.15z"/>
				<path class="st0" d="M327.51,507.15h9.77c3.66,0,5.94,0.69,7.75,2.15s3.75,4.05,3.75,7.71c0,2.11-0.78,5.43-3.06,7.62
					c-1.89,1.81-3.7,2.24-5.3,2.63l8.66,11.75h-7.15l-8.44-12.19h-0.09v12.19h-5.9V507.15z M333.4,522.39h3.79
					c4.86,0,5.68-3.23,5.68-4.91c0-1.77-1.08-4.82-5.68-4.82h-3.79V522.39z"/>
				<path class="st0" d="M363.29,507.15h4.61l13.35,31.86h-6.5l-3.4-8.22h-11.41l-3.4,8.22h-6.5L363.29,507.15z M361.91,525.23h7.32
					l-3.62-9.77h-0.09L361.91,525.23z"/>
				<path class="st0" d="M384.65,507.15h5.9v12.96h11.41v-12.96h5.9v31.86h-5.9v-13.39h-11.41v13.39h-5.9V507.15z"/>
				<path class="st0" d="M413.51,507.15h17.14v5.51h-11.24v7.79h10.77v5.51h-10.77v7.54h11.24v5.51h-17.14V507.15z"/>
				<path class="st0" d="M435.99,507.15h8.18l8.48,24.11h0.09l8.4-24.11h8.18v31.86h-5.9v-23.9h-0.13l-8.14,23.9h-4.99l-8.18-23.9
					h-0.09v23.9h-5.9V507.15z"/>
			</g>
		</g>
		<g>
			<g>
				<path class="st1" d="M140.87,548.96h5.98c3.36,0,6.72,0,9.34,2.34c1.52,1.35,2.58,3.56,2.58,5.65c0,3.81-2.46,5.24-3.4,5.78
					c2.01,0.74,5.2,2.42,5.2,7.54c0,3.65-1.93,5.9-3.77,7.21c-2.3,1.6-5.86,1.8-7.83,1.8h-8.11V548.96z M146.48,560.76h1.84
					c1.31,0,4.84,0,4.84-3.28c0-1.8-1.15-3.28-4.34-3.28h-2.34V560.76z M146.48,574.03h2.83c1.11,0,5.65,0,5.65-3.97
					c0-1.23-0.61-4.06-5.53-4.06h-2.95V574.03z"/>
				<path class="st1" d="M171.89,548.96h5.61v30.32h-5.61V548.96z"/>
				<path class="st1" d="M190.21,548.96h9.3c3.48,0,5.66,0.65,7.38,2.05c1.72,1.39,3.57,3.85,3.57,7.33c0,2.01-0.74,5.16-2.91,7.25
					c-1.8,1.72-3.52,2.13-5.04,2.5l8.24,11.19h-6.8l-8.03-11.6h-0.08v11.6h-5.61V548.96z M195.82,563.46h3.61
					c4.63,0,5.41-3.07,5.41-4.67c0-1.68-1.02-4.59-5.41-4.59h-3.61V563.46z"/>
				<path class="st1" d="M225.04,554.2h-5.61v-5.24h16.88v5.24h-5.65v25.08h-5.61V554.2z"/>
				<path class="st1" d="M246.47,548.96h5.61v12.33h10.86v-12.33h5.61v30.32h-5.61v-12.74h-10.86v12.74h-5.61V548.96z"/>
				<path class="st1" d="M328.46,570.84c-2.38,5.57-8.19,9.06-14.01,9.06c-8.77,0-15.82-7.33-15.82-15.9
					c0-8.36,6.92-15.65,15.69-15.65c5.04,0,11.39,2.62,14.3,9.26h-6.39c-2.17-2.5-4.75-4.02-8.11-4.02c-4.92,0-9.88,4.42-9.88,10.49
					c0,5.7,4.71,10.57,10.08,10.57c4.06,0,6.27-2.38,7.62-3.81H328.46z"/>
				<path class="st1" d="M339.32,548.96h5.61v30.32h-5.61V548.96z"/>
				<path class="st1" d="M357.64,548.96h9.3c3.48,0,5.66,0.65,7.38,2.05c1.72,1.39,3.57,3.85,3.57,7.33c0,2.01-0.74,5.16-2.91,7.25
					c-1.8,1.72-3.52,2.13-5.04,2.5l8.24,11.19h-6.8l-8.03-11.6h-0.08v11.6h-5.61V548.96z M363.25,563.46h3.61
					c4.63,0,5.41-3.07,5.41-4.67c0-1.68-1.02-4.59-5.41-4.59h-3.61V563.46z"/>
				<path class="st1" d="M417.17,570.84c-2.38,5.57-8.19,9.06-14.01,9.06c-8.77,0-15.82-7.33-15.82-15.9
					c0-8.36,6.92-15.65,15.69-15.65c5.04,0,11.39,2.62,14.3,9.26h-6.39c-2.17-2.5-4.75-4.02-8.11-4.02c-4.92,0-9.88,4.42-9.88,10.49
					c0,5.7,4.71,10.57,10.08,10.57c4.06,0,6.27-2.38,7.62-3.81H417.17z"/>
				<path class="st1" d="M428.03,548.96h5.61v25.08h9.26v5.24h-14.87V548.96z"/>
				<path class="st1" d="M452.78,548.96h16.31v5.24H458.4v7.42h10.24v5.24H458.4v7.17h10.69v5.24h-16.31V548.96z"/>
			</g>
		</g>
	</g>
</g>
</svg>
