<?xml version="1.0" encoding="utf-8"?>
<!-- Generator: Adobe Illustrator 26.4.1, SVG Export Plug-In . SVG Version: 6.00 Build 0)  -->
<svg version="1.1" xmlns="http://www.w3.org/2000/svg" xmlns:xlink="http://www.w3.org/1999/xlink" x="0px" y="0px"
	 viewBox="0 0 612 612.39" style="enable-background:new 0 0 612 612.39;" xml:space="preserve">
<style type="text/css">
	.st0{fill:#E09181;}
	.st1{fill:#DABA7A;}
	.st2{fill:#F3716D;}
	.st3{fill:#FBC9BC;}
</style>
<g id="Layer_1">
</g>
<g id="Layer_2">
	<g>
		<g>
			<g>
				<path class="st0" d="M149.69,447.76c0-14.07,4.29-21.97,12.94-23.7c-0.09-1.45-0.17-3.28-0.17-5.49c0-7.71,1.66-13.68,4.9-17.83
					s7.87-6.26,14.08-6.26c6.3,0,11.2,2.12,14.61,6.26s5.07,10.12,5.07,17.83c0,2.7-0.17,5.2-0.61,7.42
					c0.96,4.53,4.11,6.94,9.45,7.13h1.22v9.73h-1.31c-6.12-0.1-10.67-2.5-13.56-7.13c-3.76,4.72-9.01,7.13-15.83,7.13
					s-11.72-2.89-14.61-8.77c-4.55,1.45-6.82,5.97-6.82,13.49v13.01h-9.36V447.76z M191.41,419.05c0-10.02-3.32-15.13-9.97-15.22
					c-6.56,0-9.88,5.01-9.97,15.13c0,9.35,3.32,14.17,9.97,14.26C188.09,433.21,191.41,428.49,191.41,419.05z"/>
				<path class="st0" d="M210.31,433.11h32.71c0.18-2.99,0.26-6.07,0.26-9.06c0-5.3-1.22-9.83-3.59-13.59
					c-2.71-4.34-6.3-6.55-10.76-6.55c-4.64,0-8.57,2.5-11.63,7.61l-6.73-6.65c0.61-0.96,1.31-1.93,2.1-2.79
					c4.72-5.4,10.23-8.09,16.44-8.09c7.08,0,13.03,3.37,17.84,10.02c3.59,5.2,5.33,11.76,5.33,19.75
					c-0.09,7.03-0.35,13.39-0.61,19.08h-41.37V433.11z"/>
				<path class="st0" d="M268.91,440.63v-45.96h9.62v38.45h8.22v9.73h-8.31c-0.7,11.66-6.56,17.44-17.58,17.54h-4.2v-9.73h3.24
					C265.94,450.65,268.91,447.28,268.91,440.63z"/>
				<path class="st0" d="M285.44,433.11h0.96c5.42-0.1,8.13-3.66,8.13-10.7v-45.67h9.62v45.19c0,13.49-5.69,20.43-17.06,20.91h-1.66
					V433.11z"/>
				<path class="st0" d="M312.91,442.85v-66.1h9.88v66.1H312.91z"/>
				<path class="st0" d="M354.63,455.28c-3.76-3.57-5.6-8.77-5.6-15.71v-28.14h9.62v28.14c0,3.76,1.05,6.55,3.15,8.38
					c2.1,1.83,4.55,2.7,7.26,2.7s5.16-0.87,7.26-2.79c2.1-1.83,3.15-4.62,3.15-8.38v-62.73h9.62v56.37h9.71v9.73h-9.88
					c-0.53,5.2-2.36,9.25-5.42,12.24c-3.76,3.57-8.66,5.3-14.52,5.3v0.19C363.11,460.58,358.39,458.84,354.63,455.28z"/>
				<path class="st0" d="M398.36,433.11h7.52c-2.1-3.95-3.15-8.87-3.15-14.84c0-7.52,1.75-13.39,5.25-17.54
					c3.41-4.14,8.22-6.26,14.43-6.26c6.3,0,11.2,2.12,14.61,6.26s5.07,10.12,5.07,17.83c0,8.38-2.01,14.55-6.04,18.6
					c-3.41,3.76-8.4,5.69-14.87,5.69h-22.83V433.11z M432.39,419.05c0-10.02-3.32-15.13-9.97-15.22c-6.56,0-9.88,5.01-9.97,15.13
					c0,9.54,3.32,14.26,9.97,14.26C429.06,433.21,432.39,428.49,432.39,419.05z"/>
				<path class="st0" d="M453.03,368.75c-1.84-0.96-2.71-2.7-2.71-5.2c0-2.5,0.96-4.34,2.8-5.59c0.87-0.58,1.84-0.87,2.89-0.87
					c1.14,0,2.45,0.39,3.85,1.06l-0.09,3.95c-0.79-0.29-1.49-0.39-2.1-0.39c-1.92,0.1-2.89,0.96-2.89,2.79
					c0,2.02,1.4,2.99,4.11,2.99c0.61,0,1.57-0.1,2.89-0.29l-0.17,3.95c-4.11,0.67-7.7,1.64-10.76,2.89l-0.61-4.14
					C450.84,369.52,451.8,369.13,453.03,368.75z M450.84,376.74h9.88v66.1h-9.88V376.74z"/>
			</g>
		</g>
		<path class="st1" d="M378.96,362.41c0.64-1.43,2.33-2.03,3.88-1.25l3.64,1.88l-3.13,7.48c-0.64,1.43-2.27,2.05-3.82,1.27
			l-2.12-1.08l0.89-2.13l1.91,1c0.51,0.28,0.87,0.27,1.02-0.13l0.2-0.55l-1.48-0.77c-0.76-0.4-1.29-1.02-1.54-1.83
			c-0.35-0.8-0.38-1.6-0.09-2.32L378.96,362.41z M380.49,365.13c-0.15,0.39-0.06,0.68,0.34,0.87l1.49,0.77l1.16-2.73l-1.49-0.77
			c-0.4-0.19-0.66-0.12-0.81,0.27L380.49,365.13z"/>
		<g>
			<g>
				<g>
					<path class="st1" d="M267.97,387.91c-0.67-0.57-1.14-1.48-1.4-2.8l-0.57-3.2l2.54-0.57l0.52,3.08
						c0.16,0.63,0.36,1.09,0.62,1.31c0.26,0.23,0.52,0.34,0.83,0.34c0.93,0,1.45-0.8,1.56-2.34c0-0.74-0.1-1.77-0.36-2.97l2.59-0.4
						l0.52,3.08c0.21,0.97,0.67,1.43,1.4,1.43c0.93,0,1.4-0.57,1.45-1.66c0-0.97-0.26-2.23-0.73-3.77l2.59-0.63l0.1,0.46
						c0.05,0.34,0.16,0.74,0.21,1.2c0.05,0.46,0.16,0.91,0.21,1.37c0.05,0.46,0.1,0.86,0.1,1.14c0,3.03-1.4,4.57-4.15,4.63
						c-0.47,0-0.88-0.17-1.3-0.46c-0.41-0.29-0.73-0.57-0.93-0.91c-0.26,0.74-0.67,1.31-1.3,1.88c-0.57,0.51-1.35,0.8-2.23,0.8
						l0.05-0.17C269.43,388.77,268.65,388.48,267.97,387.91z"/>
				</g>
			</g>
			<path class="st1" d="M264.7,380.08l-0.64-2.71l15.35-3.62l0.64,2.71L264.7,380.08z"/>
		</g>
		<path class="st1" d="M224.73,452.68l-0.64-2.71l15.35-3.62l0.64,2.71L224.73,452.68z"/>
		<path class="st1" d="M410.24,389.22l-0.64-2.71l15.35-3.62l0.64,2.71L410.24,389.22z"/>
		<g>
			<path class="st0" d="M308.65,59.73C308.65,59.73,308.65,59.73,308.65,59.73L308.65,59.73L308.65,59.73
				C308.64,59.73,308.64,59.73,308.65,59.73c-0.06,0.04-20.9,14.65-20.9,36.91c0,24.61,17.59,31.2,17.59,31.2h1.91h1.07
				c-15.28-24.3,0.36-39.68,0.43-39.74c0,0,0,0,0,0c0,0,0,0,0,0c0.06,0.06,15.71,15.44,0.43,39.74h0.86h1.91
				c0,0,17.59-6.6,17.59-31.2C329.54,74.38,308.71,59.77,308.65,59.73z"/>
			<g>
				<path class="st1" d="M268.98,124.35c0,0,14.84,9.35,17.69,26.84s-6.51,28.47-18.91,39.04c-12.4,10.57-54.9,40.87-51.24,89.06
					c3.66,48.19,44.35,62.27,50.65,65.11c24.81,11.18,28.26,16.45,30.63,15.41c0.93-0.41,0.95-1.51-2.08-5.67
					s-14.46-15.69-28.55-23.91c-14.08-8.22-36.53-31.73-33.27-58.7c4.16-34.44,22.12-49.44,31.76-57.85
					c5.57-4.86,23.22-20.45,31.95-36.6c6.39-11.82,5.51-24.91,4.06-29.47c-3.74-11.73-8.98-15.97-15.97-20.32
					C278.71,122.92,265.31,120.96,268.98,124.35z"/>
				<path class="st1" d="M305.34,127.84c0,0,1.32,23.63,4.67,32.31s8.68,21.32,23.3,35.94c12.03,12.03,43.86,38.99,47.98,62.45
					c4.11,23.46,1.83,42.04-16.75,60.16c-18.58,18.12-41.28,26.96-44.78,39.14c0,0-0.38,1.33,1.05,1.45
					c1.46,0.12,12.16-6.49,21.49-10.13c8.99-3.5,48.59-21.78,55.74-54.07s0-49.65-12.79-68.84s-40.21-37.47-52.09-49.35
					c-11.88-11.88-22.32-25.33-21.21-49.07H305.34z"/>
				<path class="st1" d="M364.08,260.37c-0.76-0.91-1.77-0.46-1.68,0.46c0.2,1.87-0.23,12.27-7.86,24.59
					c-5.34,8.63-14.99,13.79-28.39,23.84c-13.4,10.05-17.67,22.24-17.67,22.24l0,0.03l-0.21-0.03c0,0-4.26-12.18-17.67-22.24
					c-13.4-10.05-23.05-15.21-28.39-23.84c-7.63-12.33-8.06-22.72-7.86-24.59c0.1-0.92-0.91-1.37-1.68-0.46
					c-0.76,0.91-6.07,9.37-5.03,20.56c1,10.71,3.96,20.87,20.87,34.12c16.91,13.25,27.72,21.02,32.29,29.55s6.09,16.91,6.24,17.97
					c0.07,0.5,0.17,1.7,1.31,1.7c0.99,0,1.27-1.19,1.34-1.7c0.15-1.07,1.68-9.44,6.24-17.97s15.38-16.3,32.29-29.55
					c16.91-13.25,20.42-22.68,20.87-34.12C369.54,269.7,364.84,261.29,364.08,260.37z"/>
			</g>
			<path class="st2" d="M308.65,231.74"/>
			<path class="st0" d="M336.22,228.09c-15.25-8.48-27.58,3.65-27.58,3.65s-12.33-12.13-27.58-3.65
				c-15.25,8.48-14.01,25.56-13.32,29.75c0.9,5.43,4.1,17.29,19.88,28.88c15.79,11.6,21.01,15.04,21.01,15.04s5.22-3.44,21.01-15.04
				s18.99-23.45,19.88-28.88C350.23,253.64,351.47,236.57,336.22,228.09z"/>
			<path class="st3" d="M330.35,237.12c-11.31-5.98-21.5,7.83-21.5,7.83l-0.21,0.22l-0.2-0.22c0,0-10.19-13.81-21.5-7.83
				c-11.31,5.98-9.33,18-8.46,20.88c0.88,2.87,3.27,11.8,14.98,19.97c11.71,8.17,15.24,10.97,15.24,10.97s3.43-2.8,15.14-10.97
				c11.71-8.17,14.1-17.09,14.98-19.97C339.69,255.12,341.67,243.09,330.35,237.12z"/>
		</g>
		<g>
			<g>
				<path class="st0" d="M162.87,469.94h4.34l12.57,30h-6.12l-3.2-7.74h-10.74l-3.2,7.74h-6.12L162.87,469.94z M161.57,486.96h6.89
					l-3.41-9.2h-0.08L161.57,486.96z"/>
				<path class="st0" d="M182.65,469.94h7.7l7.99,22.7h0.08l7.91-22.7h7.7v30h-5.55v-22.5h-0.12l-7.66,22.5h-4.7l-7.7-22.5h-0.08
					v22.5h-5.55V469.94z"/>
				<path class="st0" d="M229.36,469.94h4.34l12.57,30h-6.12l-3.2-7.74h-10.74l-3.2,7.74h-6.12L229.36,469.94z M228.06,486.96h6.89
					l-3.41-9.2h-0.08L228.06,486.96z"/>
				<path class="st0" d="M249.51,469.94h5.55v24.81h9.16v5.19h-14.72V469.94z"/>
				<path class="st0" d="M288.55,469.94h4.34l12.57,30h-6.12l-3.2-7.74h-10.74l-3.2,7.74h-6.12L288.55,469.94z M287.25,486.96h6.89
					l-3.41-9.2h-0.08L287.25,486.96z"/>
				<path class="st0" d="M308.7,469.94h5.55v24.81h9.16v5.19H308.7V469.94z"/>
				<path class="st0" d="M326.21,469.94h9.2c3.45,0,5.59,0.65,7.3,2.03c1.7,1.38,3.53,3.81,3.53,7.26c0,1.99-0.73,5.11-2.88,7.18
					c-1.78,1.7-3.49,2.11-4.99,2.47l8.15,11.07h-6.73l-7.95-11.47h-0.08v11.47h-5.55V469.94z M331.76,484.29h3.57
					c4.58,0,5.35-3.04,5.35-4.62c0-1.66-1.01-4.54-5.35-4.54h-3.57V484.29z"/>
				<path class="st0" d="M359.9,469.94h4.34l12.57,30h-6.12l-3.2-7.74h-10.74l-3.2,7.74h-6.12L359.9,469.94z M358.6,486.96h6.89
					l-3.41-9.2h-0.08L358.6,486.96z"/>
				<path class="st0" d="M380.01,469.94h5.55v12.2h10.74v-12.2h5.55v30h-5.55v-12.61h-10.74v12.61h-5.55V469.94z"/>
				<path class="st0" d="M407.17,469.94h16.14v5.19h-10.58v7.34h10.14v5.19h-10.14v7.09h10.58v5.19h-16.14V469.94z"/>
				<path class="st0" d="M428.33,469.94h7.7l7.99,22.7h0.08l7.91-22.7h7.7v30h-5.55v-22.5h-0.12l-7.66,22.5h-4.7l-7.7-22.5h-0.08
					v22.5h-5.55V469.94z"/>
			</g>
		</g>
		<g>
			<g>
				<path class="st1" d="M152.91,513.1h6.28c3.53,0,7.05,0,9.8,2.45c1.59,1.42,2.71,3.74,2.71,5.93c0,4-2.58,5.5-3.57,6.06
					c2.11,0.77,5.46,2.54,5.46,7.91c0,3.83-2.02,6.19-3.96,7.56c-2.41,1.68-6.15,1.89-8.21,1.89h-8.51V513.1z M158.8,525.48h1.93
					c1.38,0,5.07,0,5.07-3.44c0-1.89-1.2-3.44-4.56-3.44h-2.45V525.48z M158.8,539.41h2.97c1.16,0,5.93,0,5.93-4.17
					c0-1.29-0.64-4.25-5.8-4.25h-3.09V539.41z"/>
				<path class="st1" d="M177.11,513.1h5.72v5.24h-5.72V513.1z M177.11,521.05h5.72v23.86h-5.72V521.05z"/>
				<path class="st1" d="M187.86,521.05h5.24v2.11h0.09c1.07-1.55,2.15-2.92,5.12-2.92h0.47v5.54c-5.2,0.21-5.2,4.3-5.2,5.72v13.41
					h-5.72V521.05z"/>
				<path class="st1" d="M202.6,526.12h-2.79v-5.07h2.79v-7.95h5.72v7.95h3.44v5.07h-3.44v18.78h-5.72V526.12z"/>
				<path class="st1" d="M214.12,513.1h5.72v9.63c0.73-0.69,2.62-2.49,6.19-2.49c2.67,0,5.63,1.46,7.35,3.65
					c1.89,2.41,1.89,5.8,1.89,7.57v13.45h-5.72V532.7c0-2.58-0.17-7.22-4.9-7.22c-4.81,0-4.81,5.29-4.81,7.31v12.12h-5.72V513.1z"/>
				<path class="st1" d="M282.38,536.05c-2.49,5.85-8.6,9.5-14.7,9.5c-9.2,0-16.59-7.69-16.59-16.68c0-8.77,7.26-16.42,16.46-16.42
					c5.29,0,11.95,2.75,15,9.71h-6.71c-2.28-2.62-4.99-4.21-8.51-4.21c-5.16,0-10.36,4.64-10.36,11c0,5.97,4.94,11.09,10.57,11.09
					c4.25,0,6.58-2.49,7.99-4H282.38z"/>
				<path class="st1" d="M284.23,533c0-7.22,5.89-12.77,12.72-12.77c6.75,0,12.64,5.37,12.64,12.68c0,7.82-6.02,12.77-12.64,12.77
					C289.86,545.68,284.23,539.84,284.23,533z M303.88,533.05c0-4.34-3.35-7.57-6.92-7.57c-2.97,0-7.01,2.54-7.01,7.52
					c0,4.51,3.4,7.44,7.01,7.44C301.12,540.44,303.88,536.83,303.88,533.05z"/>
				<path class="st1" d="M312.99,513.1h5.72v31.81h-5.72V513.1z"/>
				<path class="st1" d="M323.31,513.1h5.72v31.81h-5.72V513.1z"/>
				<path class="st1" d="M338.65,535.54c0.26,1.55,2.49,4.9,6.58,4.9c2.54,0,4.43-1.07,5.5-3.05h6.02c-1.38,4.3-5.89,8.3-11.52,8.3
					c-7.26,0-12.59-5.67-12.59-12.64c0-6.75,4.99-12.81,12.55-12.81c7.82,0,12.34,6.4,12.34,12.42c0,1.12-0.17,2.11-0.34,2.88
					H338.65z M351.67,530.94c-0.64-3.83-3.4-5.46-6.45-5.46c-2.32,0-5.67,1.03-6.75,5.46H351.67z"/>
				<path class="st1" d="M385.03,537.13c-1.93,5.33-6.36,8.55-11.95,8.55c-6.1,0-12.68-4.9-12.68-12.81
					c0-7.31,6.06-12.64,12.64-12.64c3.01,0,9.54,1.38,11.99,8.73h-6.45c-0.69-1.2-2.02-3.48-5.54-3.48c-3.48,0-6.92,2.58-6.92,7.48
					c0,4.08,2.88,7.48,7.18,7.48c1.89,0,3.78-0.9,5.29-3.31H385.03z"/>
				<path class="st1" d="M390.02,526.12h-2.79v-5.07h2.79v-7.95h5.72v7.95h3.44v5.07h-3.44v18.78h-5.72V526.12z"/>
				<path class="st1" d="M401.49,513.1h5.72v5.24h-5.72V513.1z M401.49,521.05h5.72v23.86h-5.72V521.05z"/>
				<path class="st1" d="M409.66,521.05h6.19l5.76,15.82h0.13l5.42-15.82h6.28l-9.67,23.86h-4.47L409.66,521.05z"/>
				<path class="st1" d="M440.96,535.54c0.26,1.55,2.49,4.9,6.58,4.9c2.54,0,4.43-1.07,5.5-3.05h6.02c-1.38,4.3-5.89,8.3-11.52,8.3
					c-7.26,0-12.59-5.67-12.59-12.64c0-6.75,4.99-12.81,12.55-12.81c7.82,0,12.34,6.4,12.34,12.42c0,1.12-0.17,2.11-0.34,2.88
					H440.96z M453.98,530.94c-0.64-3.83-3.4-5.46-6.45-5.46c-2.32,0-5.67,1.03-6.75,5.46H453.98z"/>
			</g>
		</g>
	</g>
</g>
</svg>
